<svg width="1128" height="138" viewBox="0 0 1128 138" fill="none" xmlns="http://www.w3.org/2000/svg">
<path d="M72.028 107V91.608H17.268V62.304H66.7V46.912H17.268V18.644H69.216V3.39999H0.840001V107H72.028ZM97.2921 1.772H81.6041V107H97.2921V1.772ZM175.894 31.52H159.91L139.338 91.46L118.914 31.52H102.486L130.162 107H148.07L175.894 31.52ZM209.652 30.04C190.412 30.04 179.016 39.364 177.536 54.756H192.336C193.224 46.468 199.292 41.732 209.504 41.732C218.532 41.732 224.304 45.432 224.304 52.388C224.304 57.716 221.196 59.936 214.832 60.676L197.96 63.044C183.012 65.116 174.428 72.368 174.428 85.54C174.428 99.304 183.456 108.628 198.996 108.628C208.172 108.628 217.644 105.372 223.712 95.604V107H238.66V55.348C238.66 38.624 228.3 30.04 209.652 30.04ZM202.696 95.456C194.408 95.456 189.82 91.608 189.82 85.096C189.82 78.288 194.704 74.588 204.028 73.108L212.612 71.924C219.124 70.888 222.232 70.148 223.86 69.556V75.032C223.86 87.76 214.092 95.456 202.696 95.456ZM317.457 3.39999H283.861V107H314.941C352.385 107 370.293 79.62 370.293 53.128C370.293 23.528 349.129 3.39999 317.457 3.39999ZM315.089 91.608H300.289V18.644H318.197C339.657 18.644 353.717 32.408 353.717 53.128C353.717 75.476 337.733 91.608 315.089 91.608ZM445.919 67.188C445.919 44.396 432.747 30.04 412.323 30.04C390.863 30.04 376.211 45.876 376.211 69.408C376.211 92.94 390.715 108.628 412.175 108.628C429.047 108.628 442.367 98.416 445.475 83.32H431.859C429.787 91.016 422.535 95.604 413.063 95.604C399.891 95.604 390.863 87.02 390.863 73.7H445.919V67.188ZM430.971 62.304H391.011C392.047 50.316 400.335 43.064 412.027 43.064C423.867 43.064 430.971 50.612 430.971 62.304ZM485.141 63.34C474.041 61.712 467.085 60.38 467.085 53.276C467.085 46.764 473.005 42.472 482.181 42.472C491.653 42.472 497.129 46.912 498.017 54.756H512.965C511.781 39.512 500.533 30.04 481.885 30.04C463.533 30.04 452.137 39.216 452.137 54.016C452.137 72.072 469.157 74.144 483.661 76.66C494.613 78.584 499.645 79.916 499.645 85.984C499.645 92.496 493.873 96.344 483.957 96.344C473.153 96.344 466.345 91.756 465.309 83.172H449.621C450.657 99.156 463.385 108.628 483.069 108.628C502.605 108.628 514.889 99.008 514.889 84.06C514.889 67.336 499.497 65.56 485.141 63.34ZM523.026 0.291998H539.75V18.348H523.026V0.291998ZM523.47 107H539.158V31.52H523.47V107ZM606.226 31.52V42.916C602.23 34.628 593.054 30.04 581.658 30.04C561.234 30.04 548.654 44.396 548.654 66.892C548.654 89.388 561.234 103.744 581.658 103.744C592.166 103.744 601.638 99.748 606.226 90.868V104.484C606.226 117.508 599.27 124.612 585.21 124.612C573.814 124.612 566.414 119.728 564.786 110.108H549.394C551.614 127.128 564.786 137.044 585.21 137.044C608.002 137.044 621.026 124.464 621.026 102.412V31.52H606.226ZM585.062 90.424C572.186 90.424 564.342 80.952 564.342 66.744C564.342 52.536 572.334 43.36 585.062 43.36C597.642 43.36 605.486 52.388 605.486 66.744C605.486 81.248 597.79 90.424 585.062 90.424ZM674.582 30.04C663.482 30.04 655.934 33.888 650.754 42.768V31.52H635.066V107H650.754V66.596C650.754 52.684 658.006 43.952 669.698 43.952C679.614 43.952 685.386 50.02 685.386 59.788V107H700.926V58.16C700.926 39.66 691.454 30.04 674.582 30.04ZM787.573 52.98V68.224H820.873C819.689 84.8 807.701 94.42 790.681 94.42C769.517 94.42 756.493 79.324 756.493 55.348C756.493 31.372 769.517 16.276 790.385 16.276C805.629 16.276 817.321 24.416 818.949 37.144H835.525C833.157 15.092 816.137 1.032 791.125 1.032C759.897 1.032 740.065 22.936 740.065 55.94C740.065 87.76 758.713 109.664 788.905 109.664C804.593 109.664 813.769 103.892 820.577 94.716V107H835.673V52.98H787.573ZM892.006 30.78H887.714C879.278 30.78 871.286 33.296 866.698 43.508V31.52H851.158V107H866.846V69.408C866.846 53.572 874.394 45.876 889.046 45.876H892.006V30.78ZM926.907 30.04C905.003 30.04 890.499 45.876 890.499 69.408C890.499 93.088 904.855 108.628 926.907 108.628C949.107 108.628 963.463 93.088 963.463 69.408C963.463 45.876 948.959 30.04 926.907 30.04ZM926.759 44.248C939.931 44.248 947.775 54.312 947.775 69.408C947.775 84.652 940.079 94.42 927.203 94.42C914.031 94.42 906.187 84.652 906.187 69.408C906.187 54.312 913.883 44.248 926.759 44.248ZM1023.03 31.52V68.076C1023.03 84.504 1015.63 94.42 1003.05 94.42C993.282 94.42 987.954 88.352 987.954 77.4V31.52H972.414V78.88C972.414 96.788 982.626 107.888 999.202 107.888C1010.3 107.888 1018.29 103.004 1023.47 94.272V107H1038.57V31.52H1023.03ZM1094.96 30.04C1082.53 30.04 1073.5 35.812 1068.62 45.136V31.52H1053.37V135.416H1069.06V95.604C1073.8 103.448 1082.53 107.592 1093.19 107.592C1113.31 107.592 1127.23 92.052 1127.23 68.224C1127.23 45.136 1114.5 30.04 1094.96 30.04ZM1090.08 93.976C1076.91 93.976 1068.47 84.06 1068.47 68.964C1068.47 54.016 1077.05 44.1 1090.08 44.1C1103.1 44.1 1111.54 54.016 1111.54 68.964C1111.54 84.06 1102.95 93.976 1090.08 93.976Z" fill="white"/>
</svg>